<?xml version="1.0" standalone="no"?>
<!DOCTYPE svg PUBLIC "-//W3C//DTD SVG 20010904//EN"
 "http://www.w3.org/TR/2001/REC-SVG-20010904/DTD/svg10.dtd">
<svg version="1.0" xmlns="http://www.w3.org/2000/svg"
 width="600.000000pt" height="600.000000pt" viewBox="0 0 600.000000 600.000000"
 preserveAspectRatio="xMidYMid meet">
<metadata>
Created by potrace 1.14, written by Peter Selinger 2001-2017
</metadata>
<g transform="translate(0.000000,600.000000) scale(0.100000,-0.100000)"
fill="#000000" stroke="none">
<path d="M1599 5996 c-2 -2 -67 -6 -144 -10 -77 -3 -162 -8 -190 -11 -27 -3
-74 -7 -104 -10 -270 -27 -509 -98 -663 -198 -71 -46 -163 -131 -216 -199
-125 -163 -190 -335 -231 -616 -44 -291 -46 -393 -46 -1957 0 -1265 4 -1657
20 -1729 2 -11 7 -51 9 -88 7 -94 33 -251 56 -338 97 -377 315 -612 670 -726
78 -25 242 -61 308 -68 20 -2 60 -7 87 -10 227 -28 421 -31 1850 -31 1224 0
1664 5 1740 20 11 2 49 6 85 10 103 9 268 37 330 55 19 6 45 13 58 16 13 3 51
16 85 29 34 14 67 26 72 26 6 1 22 10 37 20 14 10 29 19 32 19 21 0 134 86
202 154 140 141 220 294 273 526 20 90 24 108 40 235 33 256 36 397 36 1885 0
1217 -5 1650 -20 1740 -2 14 -6 54 -9 90 -9 98 -34 248 -55 330 -123 474 -436
726 -991 795 -30 4 -66 9 -80 10 -14 2 -63 7 -110 10 -47 4 -107 9 -135 12
-55 6 -2990 14 -2996 9z"/>
</g>
</svg>
