<svg width="48" height="48" viewBox="0 0 48 48" fill="none" xmlns="http://www.w3.org/2000/svg">
<path d="M13.5195 41.3067C13.8165 34.3692 17.541 27.7287 24 23.9997C17.5365 20.2677 9.91503 20.3682 3.75603 23.5872C3.61953 30.5892 7.13403 37.4412 13.5195 41.3067Z" fill="#248EBC"/>
<path d="M34.4805 6.69336C34.1835 13.6309 30.459 20.2714 24 24.0004C30.4635 27.7324 38.085 27.6319 44.244 24.4129C44.3805 17.4109 40.866 10.5589 34.4805 6.69336Z" fill="#D1712A"/>
<path d="M33.7485 41.73C27.8895 38.004 24 31.458 24 24C17.5365 27.732 13.8135 34.3815 13.521 41.325C19.5165 44.9445 27.2085 45.327 33.7485 41.73Z" fill="#8D3E93"/>
<path d="M14.2515 6.26954C20.1105 9.99554 24 16.5415 24 23.9995C30.4635 20.2675 34.1865 13.618 34.479 6.67454C28.4835 3.05504 20.7915 2.67254 14.2515 6.26954Z" fill="#EAD13F"/>
<path d="M3.771 23.5772C9.927 20.3657 17.541 20.2712 24 24.0002C24 16.5362 20.103 9.9872 14.235 6.2627C8.103 9.6452 3.9255 16.1147 3.771 23.5772Z" fill="#6F9B45"/>
<path d="M44.229 24.423C38.073 27.6345 30.459 27.729 24 24C24 31.464 27.897 38.013 33.765 41.7375C39.897 38.355 44.0745 31.8855 44.229 24.423Z" fill="#CC4121"/>
<path d="M24 3C12.402 3 3 12.402 3 24C3 35.598 12.402 45 24 45C35.598 45 45 35.598 45 24C45 12.402 35.598 3 24 3ZM43.497 23.928C37.785 26.7615 31.212 26.7405 25.5405 23.928C30.978 20.322 34.4775 14.5185 35.1375 8.016C40.1655 11.5305 43.473 17.346 43.497 23.928ZM33.69 7.1025C33.2805 13.4535 29.964 19.1355 24.7065 22.632C24.3045 16.1115 21.036 10.188 15.732 6.3645C18.2475 5.181 21.042 4.5 24 4.5C27.528 4.5 30.8325 5.457 33.69 7.1025ZM14.2065 7.164C19.5045 10.695 22.7685 16.3905 23.1675 22.7025C17.3175 19.791 10.548 19.6605 4.584 22.3455C5.1315 15.8625 8.8635 10.2855 14.2065 7.164ZM4.503 24.0705C10.215 21.24 16.791 21.261 22.461 24.072C17.019 27.6795 13.521 33.477 12.861 39.9825C7.833 36.468 4.527 30.6525 4.503 24.0705ZM14.313 40.899C14.7225 34.545 18.03 28.8675 23.2935 25.368C23.6955 31.896 26.964 37.8105 32.2695 41.634C29.7555 42.819 26.9595 43.5 24 43.5C20.472 43.5 17.1705 42.5445 14.313 40.899ZM33.7965 40.833C28.4955 37.302 25.23 31.6155 24.8325 25.2945C27.885 26.814 31.188 27.579 34.4955 27.579C37.533 27.579 40.563 26.8965 43.419 25.608C42.8835 32.109 39.1515 37.704 33.7965 40.833Z" fill="#231F20"/>
</svg>
