<svg width="48" height="48" viewBox="0 0 48 48" fill="none" xmlns="http://www.w3.org/2000/svg">
<path d="M24 2.25C15.315 2.25 8.25 9.315 8.25 18V45.75H8.6895L12 42.4395L15 45.4395L18 42.4395L21 45.4395L24 42.4395L27 45.4395L30 42.4395L33 45.4395L36 42.4395L39.3105 45.75H39.75V18C39.75 9.315 32.685 2.25 24 2.25Z" fill="#FFFAEE"/>
<path d="M18 26.25C15.5115 26.25 14.25 24.483 14.25 21C14.25 17.517 15.5115 15.75 18 15.75C20.4885 15.75 21.75 17.517 21.75 21C21.75 24.483 20.4885 26.25 18 26.25ZM33.75 21C33.75 17.517 32.4885 15.75 30 15.75C27.5115 15.75 26.25 17.517 26.25 21C26.25 24.483 27.5115 26.25 30 26.25C32.4885 26.25 33.75 24.483 33.75 21Z" fill="#3D3935"/>
<path d="M24 3C32.271 3 39 9.729 39 18V44.379L37.0605 42.4395L36 41.379L34.9395 42.4395L33 44.379L31.0605 42.4395L30 41.379L28.9395 42.4395L27 44.379L25.0605 42.4395L24 41.379L22.9395 42.4395L21 44.379L19.0605 42.4395L18 41.379L16.9395 42.4395L15 44.379L13.0605 42.4395L12 41.379L10.9395 42.4395L9 44.379V18C9 9.729 15.729 3 24 3ZM24 1.5C14.8875 1.5 7.5 8.8875 7.5 18V46.5H9L12 43.5L15 46.5L18 43.5L21 46.5L24 43.5L27 46.5L30 43.5L33 46.5L36 43.5L39 46.5H40.5V18C40.5 8.8875 33.1125 1.5 24 1.5ZM18 16.5C18.7425 16.5 21 16.5 21 21C21 25.5 18.7425 25.5 18 25.5C17.2575 25.5 15 25.5 15 21C15 16.5 17.2575 16.5 18 16.5ZM18 15C14.6865 15 13.5 17.6865 13.5 21C13.5 24.3135 14.6865 27 18 27C21.3135 27 22.5 24.3135 22.5 21C22.5 17.6865 21.3135 15 18 15ZM30 16.5C30.7425 16.5 33 16.5 33 21C33 25.5 30.7425 25.5 30 25.5C29.2575 25.5 27 25.5 27 21C27 16.5 29.2575 16.5 30 16.5ZM30 15C26.6865 15 25.5 17.6865 25.5 21C25.5 24.3135 26.6865 27 30 27C33.3135 27 34.5 24.3135 34.5 21C34.5 17.6865 33.3135 15 30 15Z" fill="#231F20"/>
</svg>
