<svg width="48" height="48" viewBox="0 0 48 48" fill="none" xmlns="http://www.w3.org/2000/svg">
<path d="M20.25 43.1895V20.25H19.5C14.952 20.25 11.25 16.548 11.25 12V9C11.25 4.452 14.952 0.75 19.5 0.75H28.5C33.048 0.75 36.75 4.452 36.75 9V12C36.75 16.548 33.048 20.25 28.5 20.25H27.75V28.8105L28.9395 30L25.9395 33L28.9395 36L25.9395 39L29.064 42.1245L24.012 46.9515L20.25 43.1895ZM24 3.75C22.7595 3.75 21.75 4.7595 21.75 6C21.75 7.2405 22.7595 8.25 24 8.25C25.2405 8.25 26.25 7.2405 26.25 6C26.25 4.7595 25.2405 3.75 24 3.75Z" fill="#EAD13F"/>
<path d="M24 19.5V46.9515L29.064 42.1365L25.9275 39L28.9275 36L25.9275 33L28.9275 30L27.75 28.8015V19.5H24Z" fill="#E0A838"/>
<path d="M28.5 0H19.5C14.529 0 10.5 4.029 10.5 9V12C10.5 16.971 14.529 21 19.5 21V43.5L24 48L30.1365 42.1365L27 39L30 36L27 33L30 30L28.5 28.5V21C33.471 21 37.5 16.971 37.5 12V9C37.5 4.029 33.471 0 28.5 0ZM36 12C36 16.1355 32.6355 19.5 28.5 19.5H27V29.121L27.879 30L24.879 33L27.879 36L24.879 39L27.9915 42.1125L24.0255 45.903L21 42.879V19.5H19.5C15.3645 19.5 12 16.1355 12 12V9C12 4.8645 15.3645 1.5 19.5 1.5H28.5C32.6355 1.5 36 4.8645 36 9V12ZM24 3C22.3455 3 21 4.3455 21 6C21 7.6545 22.3455 9 24 9C25.6545 9 27 7.6545 27 6C27 4.3455 25.6545 3 24 3ZM24 7.5C23.172 7.5 22.5 6.828 22.5 6C22.5 5.172 23.172 4.5 24 4.5C24.828 4.5 25.5 5.172 25.5 6C25.5 6.828 24.828 7.5 24 7.5Z" fill="#231F20"/>
</svg>
