<svg width="48" height="48" viewBox="0 0 48 48" fill="none" xmlns="http://www.w3.org/2000/svg">
<g clip-path="url(#clip0_304_184)">
<path d="M16.5 32.25C7.815 32.25 0.75 25.185 0.75 16.5C0.75 7.815 7.815 0.75 16.5 0.75C25.185 0.75 32.25 7.815 32.25 16.5C32.25 19.995 31.1145 23.3145 28.9665 26.1L28.563 26.6235L31.482 29.5425L29.532 31.4715L26.6235 28.563L26.1 28.9665C23.3145 31.1145 19.995 32.25 16.5 32.25ZM16.5 3.75C9.4695 3.75 3.75 9.4695 3.75 16.5C3.75 23.5305 9.4695 29.25 16.5 29.25C23.5305 29.25 29.25 23.5305 29.25 16.5C29.25 9.4695 23.5305 3.75 16.5 3.75Z" fill="#A3AEB5"/>
<path d="M28.035 32.9747L32.994 28.0547L46.9395 42.0002L42 46.9397L28.035 32.9747Z" fill="#716558"/>
<path d="M16.3905 3.10938C8.946 3.10938 2.8905 9.16488 2.8905 16.6094C2.8905 24.0539 8.946 30.1094 16.3905 30.1094C23.835 30.1094 29.8905 24.0539 29.8905 16.6094C29.8905 9.16488 23.835 3.10938 16.3905 3.10938ZM16.3905 28.6094C9.7635 28.6094 4.3905 23.2364 4.3905 16.6094C4.3905 9.98237 9.7635 4.60938 16.3905 4.60938C23.0175 4.60938 28.3905 9.98237 28.3905 16.6094C28.3905 23.2364 23.0175 28.6094 16.3905 28.6094ZM32.8905 27.1094L31.3905 28.6094L29.4495 26.6684C31.599 23.8829 32.8905 20.3999 32.8905 16.6094C32.8905 7.49688 25.503 0.109375 16.3905 0.109375C7.278 0.109375 -0.109497 7.49688 -0.109497 16.6094C-0.109497 25.7219 7.278 33.1094 16.3905 33.1094C20.181 33.1094 23.6625 31.8179 26.4495 29.6684L28.3905 31.6094L26.8905 33.1094L41.8905 48.1094L47.8905 42.1094L32.8905 27.1094ZM1.3905 16.6094C1.3905 8.33838 8.1195 1.60937 16.3905 1.60937C24.6615 1.60937 31.3905 8.33838 31.3905 16.6094C31.3905 24.8804 24.6615 31.6094 16.3905 31.6094C8.1195 31.6094 1.3905 24.8804 1.3905 16.6094ZM27.597 28.6949C27.9015 28.4129 28.194 28.1204 28.476 27.8159L30.33 29.6699L29.451 30.5489L27.597 28.6949ZM28.983 33.0794L32.88 29.2199L45.7695 42.1094L41.8905 45.9884L28.983 33.0794Z" fill="#231F20"/>
</g>
<defs>
<clipPath id="clip0_304_184">
<rect width="48" height="48" fill="white"/>
</clipPath>
</defs>
</svg>
