<svg width="74" height="24" viewBox="0 0 74 24" fill="none" xmlns="http://www.w3.org/2000/svg">
<g clip-path="url(#clip0_202_929)">
<path d="M21.4045 19.9167V9.10494C21.4037 9.09201 21.4057 9.07906 21.4102 9.06695C21.4148 9.05484 21.4218 9.04385 21.4309 9.03469C21.4399 9.02553 21.4508 9.01841 21.4628 9.0138C21.4748 9.0092 21.4876 9.00721 21.5004 9.00797H23.5579C23.5829 9.00954 23.6065 9.02024 23.6242 9.03808C23.642 9.05592 23.6528 9.07968 23.6545 9.10494V13.0137H23.6929C24.2314 12.314 25.0577 12.0022 25.9621 12.0022C27.577 12.0022 28.0964 13.0719 28.0964 14.4914V19.9368C28.0948 19.962 28.0842 19.9858 28.0666 20.0036C28.0489 20.0215 28.0254 20.0322 28.0005 20.0338H25.943C25.9301 20.0346 25.9172 20.0327 25.9052 20.0282C25.8931 20.0236 25.8821 20.0165 25.873 20.0074C25.8638 19.9982 25.8567 19.9871 25.8521 19.975C25.8475 19.9628 25.8456 19.9498 25.8463 19.9368V14.6861C25.8463 14.064 25.2119 13.8887 24.8083 13.8887C24.4048 13.8887 23.6545 14.161 23.6545 14.9196V19.9174C23.6528 19.9427 23.642 19.9664 23.6242 19.9843C23.6065 20.0021 23.5829 20.0128 23.5579 20.0144H21.5004C21.4754 20.0128 21.4519 20.0021 21.4343 19.9842C21.4166 19.9664 21.406 19.9426 21.4045 19.9174V19.9167ZM37.8078 17.7803V14.064H36.8658C36.8529 14.0647 36.84 14.0627 36.8279 14.0581C36.8158 14.0534 36.8049 14.0463 36.7957 14.037C36.7866 14.0278 36.7795 14.0167 36.7749 14.0045C36.7703 13.9923 36.7684 13.9793 36.7691 13.9663V12.6236C36.7691 12.584 36.8082 12.5452 36.8274 12.5258C36.8658 12.5064 38.0771 12.1566 38.0771 12.1566C38.0771 12.1566 38.7307 10.0568 38.7499 10.018C38.757 9.99849 38.7704 9.98201 38.788 9.9713C38.8055 9.96058 38.8262 9.95626 38.8466 9.95905H39.962C39.9748 9.9584 39.9876 9.96049 39.9996 9.96518C40.0116 9.96987 40.0225 9.97706 40.0315 9.98628C40.0406 9.99549 40.0476 10.0065 40.0521 10.0187C40.0567 10.0308 40.0586 10.0438 40.0579 10.0568V12.1566H41.7119C41.7368 12.1582 41.7603 12.1689 41.778 12.1868C41.7956 12.2046 41.8062 12.2284 41.8078 12.2536V13.9648C41.8062 13.99 41.7957 14.0139 41.778 14.0319C41.7604 14.0498 41.7369 14.0607 41.7119 14.0625H40.0579V17.5639C40.0579 17.9332 40.2696 18.1473 40.7499 18.1473H41.7089C41.7339 18.1489 41.7573 18.1596 41.775 18.1774C41.7927 18.1953 41.8033 18.219 41.8048 18.2442V19.7414C41.8039 19.7612 41.7982 19.7804 41.7881 19.7975C41.7781 19.8145 41.7641 19.8288 41.7473 19.8391C41.1704 20.0524 40.8436 20.1889 40.17 20.1889C38.5006 20.1673 37.8078 19.1774 37.8078 17.7803ZM70.0001 17.7803V14.064H69.0572C69.0444 14.0647 69.0315 14.0627 69.0194 14.0581C69.0073 14.0534 68.9964 14.0463 68.9872 14.037C68.9781 14.0278 68.971 14.0167 68.9664 14.0045C68.9618 13.9923 68.9599 13.9793 68.9606 13.9663V12.6236C68.9677 12.5849 68.9884 12.5502 69.0189 12.5258C69.0572 12.5064 70.2686 12.1566 70.2686 12.1566C70.2686 12.1566 70.9222 10.0568 70.9414 10.018C70.9482 9.99832 70.9616 9.98168 70.9792 9.97093C70.9969 9.96017 71.0177 9.95597 71.038 9.95905H72.1557C72.1685 9.9584 72.1814 9.96049 72.1933 9.96518C72.2053 9.96987 72.2162 9.97706 72.2252 9.98628C72.2343 9.99549 72.2413 10.0065 72.2458 10.0187C72.2504 10.0308 72.2523 10.0438 72.2516 10.0568V12.1566H73.9041C73.929 12.1582 73.9525 12.1689 73.9702 12.1868C73.9878 12.2046 73.9985 12.2284 74 12.2536V13.9648C73.9985 13.99 73.9879 14.0139 73.9702 14.0319C73.9526 14.0498 73.9291 14.0607 73.9041 14.0625H72.2501V17.5639C72.2501 17.9332 72.4619 18.1473 72.9421 18.1473H73.9012C73.9261 18.1489 73.9496 18.1596 73.9672 18.1774C73.9849 18.1953 73.9955 18.219 73.9971 18.2442V19.7414C73.9961 19.7612 73.9904 19.7804 73.9804 19.7975C73.9703 19.8145 73.9563 19.8288 73.9395 19.8391C73.3626 20.0524 73.0358 20.1889 72.3623 20.1889C70.6729 20.1673 70.0001 19.1774 70.0001 17.7803ZM43.1733 19.9167V12.2334C43.1726 12.2205 43.1745 12.2076 43.1791 12.1954C43.1836 12.1833 43.1907 12.1723 43.1997 12.1632C43.2088 12.154 43.2197 12.1469 43.2317 12.1423C43.2436 12.1377 43.2564 12.1357 43.2692 12.1365H45.1349C45.1558 12.1399 45.1755 12.1485 45.1922 12.1615C45.2089 12.1746 45.2222 12.1916 45.2309 12.2111C45.2309 12.2498 45.4426 12.9891 45.4426 12.9891H45.4809C46.0195 12.2886 46.8273 11.9776 47.731 11.9776C48.8273 11.9776 49.3658 12.4833 49.6734 13.2613H49.7288C50.2865 12.3088 51.2669 11.9776 52.1707 11.9776C53.7863 11.9776 54.3056 13.0473 54.3056 14.4668V19.9122C54.3064 19.9251 54.3044 19.9381 54.2999 19.9502C54.2953 19.9623 54.2883 19.9733 54.2792 19.9824C54.2702 19.9916 54.2593 19.9987 54.2473 20.0033C54.2353 20.0079 54.2225 20.0099 54.2097 20.0092H52.1515C52.1266 20.0076 52.1031 19.9968 52.0854 19.979C52.0677 19.9611 52.0571 19.9374 52.0556 19.9122V14.7055C52.0556 14.0834 51.4787 13.8499 51.0751 13.8499C50.6133 13.8499 49.9021 14.1416 49.8822 14.8413V19.8973C49.8807 19.9225 49.87 19.9462 49.8524 19.9641C49.8347 19.9819 49.8112 19.9926 49.7863 19.9942H47.7118C47.699 19.995 47.6862 19.993 47.6743 19.9884C47.6623 19.9838 47.6514 19.9767 47.6423 19.9675C47.6333 19.9584 47.6262 19.9474 47.6217 19.9353C47.6171 19.9231 47.6152 19.9102 47.6159 19.8973V14.6861C47.6159 14.064 46.9999 13.8305 46.558 13.8305C46.1537 13.8305 45.4426 14.1416 45.4426 14.9196V19.8973C45.4433 19.9102 45.4414 19.9231 45.4368 19.9353C45.4323 19.9474 45.4252 19.9584 45.4162 19.9675C45.4071 19.9767 45.3962 19.9838 45.3842 19.9884C45.3723 19.993 45.3595 19.995 45.3467 19.9942H43.2884C43.276 19.9987 43.2627 20.0003 43.2496 19.9988C43.2365 19.9973 43.2239 19.9927 43.2127 19.9855C43.2016 19.9783 43.1923 19.9686 43.1855 19.9572C43.1786 19.9458 43.1745 19.9329 43.1733 19.9196V19.9167ZM55.6542 13.8887V12.4714C55.6519 12.4487 55.6582 12.426 55.6719 12.408C55.6857 12.39 55.7057 12.3779 55.728 12.3744C56.8051 12.1603 57.7855 12.0014 58.7276 12.0014C60.7276 12.0014 61.8821 12.4878 61.8821 14.666V19.9361C61.8827 19.949 61.8807 19.962 61.876 19.9741C61.8714 19.9862 61.8643 19.9972 61.8552 20.0063C61.8461 20.0155 61.8351 20.0226 61.8231 20.0272C61.8111 20.0318 61.7983 20.0338 61.7855 20.033H59.8268C59.7693 20.033 59.753 19.9942 59.7309 19.9584C59.7088 19.9226 59.5192 19.1804 59.5192 19.1804H59.6143C59.0566 19.9584 58.3063 20.1919 57.4011 20.1919C55.9397 20.1919 55.1511 19.0446 55.1511 17.6833C55.1511 15.6417 56.6317 15.2336 57.728 15.2336H59.632V14.7115C59.632 14.0699 59.151 13.9334 57.3451 13.9334C56.5756 13.9334 55.7678 13.9916 55.7295 13.9916C55.7105 13.9824 55.694 13.9688 55.6812 13.952C55.6684 13.9351 55.6597 13.9155 55.6557 13.8946L55.6542 13.8887ZM59.6542 16.6106H58.4229C57.7693 16.6106 57.3465 16.8635 57.3465 17.5639C57.3465 18.3218 57.8851 18.4971 58.4037 18.4971C58.8847 18.4971 59.6542 18.2055 59.6542 17.2335V16.6106ZM63.2115 19.9167V12.2334C63.2107 12.2204 63.2127 12.2074 63.2173 12.1953C63.2219 12.1831 63.229 12.1721 63.2382 12.1629C63.2473 12.1537 63.2583 12.1466 63.2703 12.1421C63.2824 12.1375 63.2953 12.1356 63.3081 12.1365H65.1525C65.1749 12.1341 65.1973 12.1405 65.2151 12.1544C65.233 12.1683 65.2449 12.1886 65.2484 12.2111C65.2484 12.2498 65.4601 13.3971 65.4601 13.3971H65.4984C65.9986 12.367 67.0182 11.997 67.9027 11.9582C67.9156 11.9574 67.9284 11.9594 67.9405 11.9641C67.9525 11.9687 67.9634 11.9759 67.9725 11.9851C67.9815 11.9944 67.9886 12.0055 67.9931 12.0177C67.9976 12.0299 67.9995 12.0429 67.9986 12.0559V14.1997C67.997 14.2249 67.9864 14.2487 67.9688 14.2666C67.9511 14.2844 67.9276 14.2951 67.9027 14.2967H67.3863C65.9632 14.2967 65.4822 14.8606 65.4822 15.5805V19.8973C65.4806 19.9225 65.47 19.9462 65.4524 19.9641C65.4347 19.9819 65.4112 19.9926 65.3863 19.9942H63.3273C63.3146 19.9993 63.3009 20.0011 63.2874 19.9997C63.2738 19.9982 63.2608 19.9935 63.2494 19.9859C63.2381 19.9783 63.2287 19.968 63.2221 19.956C63.2155 19.9439 63.2118 19.9304 63.2115 19.9167ZM29.0547 16.0862C29.0547 13.5776 30.0137 12.0022 32.7662 12.0022C35.5187 12.0022 36.4976 13.597 36.4976 16.0862C36.4976 18.5941 35.5386 20.1695 32.7662 20.1695C30.0196 20.1673 29.0576 18.5941 29.0576 16.0862H29.0547ZM31.4781 16.0862C31.4781 17.4468 31.6707 18.2636 32.747 18.2636C33.8433 18.2636 34.0358 17.4274 34.0358 16.0862C34.0358 14.7249 33.8433 13.9081 32.747 13.9081C31.6928 13.9081 31.4811 14.7219 31.4811 16.0862H31.4781Z" fill="#053D4E"/>
<path d="M17.1947 15.3078C17.3098 13.1692 16.5795 9.66849 14.8104 6.79064C14.8082 6.78249 14.8044 6.77489 14.7992 6.76829C14.794 6.76169 14.7875 6.75624 14.7801 6.75227C14.7727 6.7483 14.7647 6.74589 14.7563 6.7452C14.748 6.74451 14.7396 6.74554 14.7317 6.74824C14.7238 6.75094 14.7165 6.75525 14.7103 6.7609C14.7041 6.76655 14.6991 6.77342 14.6957 6.7811C14.6922 6.78877 14.6903 6.79708 14.6901 6.80552C14.6899 6.81396 14.6914 6.82235 14.6946 6.83017C14.8104 7.2576 14.8488 8.05501 14.156 8.01622C12.9447 7.9379 14.1944 5.29353 11.5216 3.48536C11.5105 3.47807 11.4974 3.47445 11.4841 3.47499C11.4709 3.47553 11.4581 3.48022 11.4476 3.48839C11.4371 3.49657 11.4293 3.50785 11.4254 3.52066C11.4215 3.53347 11.4216 3.5472 11.4257 3.55995C11.6175 3.9098 11.7142 5.01827 11.2907 5.38826C10.9447 5.67993 10.3316 5.6016 9.73335 4.61024C8.73299 2.95723 9.11809 1.20725 9.79089 0.098774C9.84844 0.0241796 9.77171 -0.0175924 9.71712 0.00180217C6.04397 1.22664 5.31289 5.6016 4.52426 7.19643C4.38999 7.4687 4.2749 7.60446 4.06318 7.58507C3.38963 7.54628 3.87063 6.08796 4.10154 5.6016C4.1399 5.52701 4.06318 5.48523 4.00563 5.54342C2.11557 7.52987 0.404045 10.9329 0.0794451 14.083C0.0986261 14.0047 0.0410833 14.3359 0.0219024 14.588C0.0219024 14.6857 0.00272145 14.7827 0.00272145 14.8797V15.2302C-0.0259763 16.3832 0.172533 17.5303 0.586683 18.6049C1.00083 19.6795 1.62234 20.66 2.415 21.4893C3.20765 22.3186 4.1556 22.98 5.20361 23.4352C6.25162 23.8903 7.37873 24.13 8.51927 24.1403C9.65981 24.1506 10.791 23.9313 11.8469 23.4952C12.9027 23.059 13.8622 22.4147 14.6694 21.5999C15.4765 20.7851 16.1153 19.8159 16.5483 18.749C16.9814 17.6821 17.2001 16.5387 17.1918 15.3854L17.1947 15.3078ZM8.56331 19.3359C7.7752 19.3288 7.00689 19.0855 6.35559 18.6367C5.7043 18.1879 5.19928 17.5539 4.90445 16.8148C4.60962 16.0758 4.53822 15.2649 4.69928 14.4848C4.86035 13.7047 5.24665 12.9904 5.80929 12.4324C6.37194 11.8743 7.08565 11.4976 7.86012 11.3498C8.63459 11.202 9.43501 11.2898 10.1601 11.6021C10.8852 11.9144 11.5024 12.4372 11.9336 13.1042C12.3648 13.7713 12.5906 14.5527 12.5825 15.3496C12.5776 15.8786 12.4696 16.4014 12.2647 16.888C12.0597 17.3747 11.7617 17.8157 11.3879 18.1857C11.014 18.5558 10.5716 18.8476 10.0861 19.0444C9.60049 19.2413 9.08126 19.3393 8.55815 19.3329L8.56331 19.3359Z" fill="#F04E23"/>
</g>
<defs>
<clipPath id="clip0_202_929">
<rect width="74" height="24" fill="white"/>
</clipPath>
</defs>
</svg>
